<svg xmlns="http://www.w3.org/2000/svg" viewBox="0 0 1600 900">
  <defs>
    <linearGradient id="sky" x1="0" x2="1" y1="0" y2="1"><stop stop-color="#13281d"/><stop offset=".5" stop-color="#1F3D2B"/><stop offset="1" stop-color="#4f7d35"/></linearGradient>
    <radialGradient id="sun" cx=".18" cy=".18" r=".45"><stop stop-color="#d9ff7a" stop-opacity=".8"/><stop offset="1" stop-color="#d9ff7a" stop-opacity="0"/></radialGradient>
    <filter id="blur"><feGaussianBlur stdDeviation="6"/></filter>
  </defs>
  <rect width="1600" height="900" fill="url(#sky)"/>
  <rect width="1600" height="900" fill="url(#sun)"/>
  <path d="M0 620 C240 530 360 690 560 610 C760 530 980 570 1160 625 C1350 685 1480 590 1600 640 L1600 900 L0 900 Z" fill="#0f2519" opacity=".78"/>
  <path d="M0 690 C230 640 420 760 650 700 C900 635 1030 720 1230 690 C1400 665 1510 710 1600 675 L1600 900 L0 900 Z" fill="#173d27"/>
  <path d="M0 765 C270 735 360 790 610 750 C880 706 1120 790 1600 735 L1600 900 L0 900 Z" fill="#dfeeda" opacity=".28"/>
  <g opacity=".82">
    <circle cx="235" cy="390" r="42" fill="#f2f3e8"/>
    <path d="M190 445 h90 l35 230 h-158z" fill="#9BE245"/>
    <path d="M160 670 c95 35 180 22 250-30" stroke="#56c36b" stroke-width="34" fill="none" stroke-linecap="round"/>
    <path d="M1020 330 c35-24 78-11 92 26 c14 39-6 78-46 91 c-40 12-78-8-90-45 c-9-28 4-56 44-72z" fill="#f2f3e8"/>
    <path d="M965 425 h120 l40 250 h-182z" fill="#7bd044"/>
    <path d="M1040 670 c120 38 210 16 270-58" stroke="#48b95d" stroke-width="38" fill="none" stroke-linecap="round"/>
  </g>
  <g fill="#9BE245" opacity=".42" filter="url(#blur)">
    <ellipse cx="60" cy="810" rx="80" ry="26" transform="rotate(-35 60 810)"/>
    <ellipse cx="1510" cy="760" rx="95" ry="30" transform="rotate(28 1510 760)"/>
    <ellipse cx="140" cy="120" rx="70" ry="24" transform="rotate(-25 140 120)"/>
  </g>
  <rect width="1600" height="900" fill="#082314" opacity=".36"/>
</svg>
