<svg xmlns="http://www.w3.org/2000/svg" viewBox="0 0 640 420"><rect width="640" height="420" rx="32" fill="#E8F7D8"/><circle cx="505" cy="105" r="75" fill="#8BC34A" opacity=".45"/><g fill="#f8fff3" stroke="#2E7D32" stroke-width="7"><path d="M145 100 h50 v34h-50zM132 134 h76 l24 170 c4 28-17 48-44 48h-36c-27 0-48-20-44-48z"/><path d="M295 82 h52 v38h-52zM280 120 h84 l25 188 c4 29-18 50-47 50h-40c-29 0-51-21-47-50z"/><path d="M445 120 h48 v34h-48zM432 154 h74 l22 148 c5 31-16 52-45 52h-28c-29 0-50-21-45-52z"/></g></svg>
