<svg xmlns="http://www.w3.org/2000/svg" viewBox="0 0 640 420"><rect width="640" height="420" rx="32" fill="#cfeec8"/><path d="M0 315 C200 250 330 360 640 292 L640 420 L0 420 Z" fill="#2E7D32" opacity=".25"/><g fill="#e9fff0" stroke="#2E7D32" stroke-width="8"><path d="M185 82 h56 v42h-56zM170 124 h86 l24 185 c4 30-18 52-48 52h-38c-30 0-52-22-48-52z"/><path d="M385 82 h56 v42h-56zM370 124 h86 l24 185 c4 30-18 52-48 52h-38c-30 0-52-22-48-52z"/></g><path d="M80 335 c150-70 310-70 480 0" stroke="#8BC34A" stroke-width="28" fill="none" stroke-linecap="round"/></svg>
